<?xml version="1.0" encoding="iso-8859-1"?>
<!-- Generator: Adobe Illustrator 19.0.0, SVG Export Plug-In . SVG Version: 6.00 Build 0)  -->
<svg version="1.1" id="Capa_1" xmlns="http://www.w3.org/2000/svg" xmlns:xlink="http://www.w3.org/1999/xlink" x="0px" y="0px"
	 viewBox="0 0 512 512" style="enable-background:new 0 0 512 512;" xml:space="preserve">
<g>
	<g>
		<path d="M240,0c-35.296,0-64,28.704-64,64v64c0,35.296,28.704,64,64,64s64-28.704,64-64V64C304,28.704,275.296,0,240,0z M272,128
			c0,17.664-14.336,32-32,32s-32-14.336-32-32V64c0-17.664,14.336-32,32-32s32,14.336,32,32V128z"/>
	</g>
</g>
<g>
	<g>
		<path d="M352,96c-8.832,0-16,7.168-16,16v16c0,52.928-43.072,96-96,96c-52.928,0-96-43.072-96-96v-16c0-8.832-7.168-16-16-16
			c-8.832,0-16,7.168-16,16v16c0,65.12,49.024,118.4,112,126.368V304c0,8.832,7.168,16,16,16c8.832,0,16-7.168,16-16v-49.632
			C318.976,246.4,368,193.12,368,128v-16C368,103.168,360.832,96,352,96z"/>
	</g>
</g>
<g>
	<g>
		<path d="M128,352c-26.464,0-48,21.536-48,48v64c0,26.464,21.536,48,48,48s48-21.536,48-48v-64C176,373.536,154.464,352,128,352z
			 M144,464c0,8.8-7.2,16-16,16s-16-7.2-16-16v-64c0-8.8,7.2-16,16-16s16,7.2,16,16V464z"/>
	</g>
</g>
<g>
	<g>
		<path d="M288,416h-48v-32h48c8.832,0,16-7.168,16-16c0-8.832-7.168-16-16-16h-64c-8.832,0-16,7.168-16,16v128
			c0,8.832,7.168,16,16,16c8.832,0,16-7.168,16-16v-48h48c8.832,0,16-7.168,16-16C304,423.168,296.832,416,288,416z"/>
	</g>
</g>
<g>
	<g>
		<path d="M416,416h-48v-32h48c8.832,0,16-7.168,16-16c0-8.832-7.168-16-16-16h-64c-8.832,0-16,7.168-16,16v128
			c0,8.832,7.168,16,16,16c8.832,0,16-7.168,16-16v-48h48c8.832,0,16-7.168,16-16C432,423.168,424.832,416,416,416z"/>
	</g>
</g>
<g>
</g>
<g>
</g>
<g>
</g>
<g>
</g>
<g>
</g>
<g>
</g>
<g>
</g>
<g>
</g>
<g>
</g>
<g>
</g>
<g>
</g>
<g>
</g>
<g>
</g>
<g>
</g>
<g>
</g>
</svg>
